<?xml version="1.0" encoding="UTF-8"?>
<svg id="Layer_1" data-name="Layer 1" xmlns="http://www.w3.org/2000/svg" xmlns:xlink="http://www.w3.org/1999/xlink" viewBox="0 0 242 242">
  <defs>
    <clipPath id="clippath">
      <rect x="50.91" y="37.05" width="153.09" height="158.61" fill="none"/>
    </clipPath>
  </defs>
  <circle id="Ellipse_9-2" data-name="Ellipse 9-2" cx="121" cy="121" r="121" fill="#b4c6d3"/>
  <g id="Group_57" data-name="Group 57">
    <g clip-path="url(#clippath)">
      <g id="Group_56" data-name="Group 56">
        <path id="Path_63" data-name="Path 63" d="M179.93,195.66v-42.88c0-.95-2.27-1.67-3.2-1.76-7.28-.52-14.59-.51-21.87.03-1,.11-2.72.5-2.72,1.74v42.88h-20.59c-.38-.28-.71-.62-.99-1l-.28-121.71c-.02-1.96,1.64-2.08,3.23-2.23,21.48-1.91,45.75,1.49,67.52,0,1.08-.09,2.16.27,2.96,1.01v122.93c-.29.38-.62.72-1,1h-23.07ZM141.06,82.23c-1.16.39-1.25,2.08-1.35,3.12-.43,5.95-.42,11.93.01,17.88.25,2.18,1.03,2.97,3.22,3.22,2.74.32,17.02.39,19.13-.23.56-.22,1.07-.55,1.5-.98v-22.39c-.44-.49-1.09-.75-1.75-.72-6.28-.79-14.31.57-20.78.1M171.84,82.24c-.47.14-.87.46-1.1.89-.45.93-.54,18.58-.27,20.6.02,1.18.84,2.2,1.99,2.47,2.03.62,16.45.55,19.14.23,1.38-.16,2.54-.54,3-1.96.62-1.91.52-16.94.23-19.62-.02-.8-.27-1.58-.74-2.23-1.25-1.23-19.18-.14-22.24-.38M163.45,115.97c-.55-.55-1.82-.57-2.59-.63-4.22-.35-14.39-.54-18.4,0-1.91.25-2.5,1.38-2.72,3.24-.31,2.7-.39,17.08.23,19.12.28,1.14,1.29,1.96,2.47,1.98,3.98.54,14.21.35,18.4,0,2.76-.23,2.99-.46,3.22-3.22.36-5.79.36-11.6,0-17.39-.06-.89.01-2.43-.64-3.08M171.11,115.97c-.55.55-.57,1.82-.63,2.59-.45,6.29-.45,12.6,0,18.88.21,1.79,1.06,2.02,2.75,2.21,6.12.45,12.27.46,18.4.02,1.88-.18,2.95-.65,3.22-2.73.33-2.52.33-17.72-.25-19.63-.28-1.15-1.3-1.96-2.48-1.98-3.98-.53-14.21-.35-18.4,0-.77.06-2.04.08-2.59.63" fill="#1a1818"/>
        <path id="Path_64" data-name="Path 64" d="M173.58,173.32c0,1.44-1.16,2.61-2.6,2.62-1.44,0-2.61-1.16-2.62-2.6,0-1.44,1.16-2.61,2.6-2.62,0,0,0,0,0,0,1.44,0,2.61,1.16,2.61,2.6" fill="#1a1818"/>
        <path id="Path_65" data-name="Path 65" d="M52.66,195.66c-1.44-.26-1.8-1.94-1.76-3.2V40.74c.26-3.14.73-3.02,3.72-3.22,21.89-1.49,45.45,1.17,67.52,0,1,.08,2.41.03,2.88,1.12.78,51.38.08,102.89.36,154.32.31.73-1.46,2.7-1.76,2.7h-19.85c-.27-.22-.52-.47-.74-.74v-42.62c0-.89-1.97-1.2-2.7-1.27-4.69-.47-17.87-.6-22.38,0-.66.09-2.21.64-2.21,1.26v42.63c-.22.27-.47.52-.74.74h-22.33ZM62.7,48.55c-.87.19-1.77.64-1.85,1.62.58,3.4-.95,20.08.45,21.86.45.49,1.1.75,1.76.72,6.29.46,12.61.46,18.91,0,1.9-.18,2.96-.67,3.22-2.73.43-5.96.43-11.94,0-17.89-.18-1.99-.51-3.43-2.73-3.72-2.94-.39-17.14-.44-19.76.13M114.82,49.05c-.55-.55-1.82-.57-2.59-.63-4.27-.36-14.32-.53-18.41,0-1.49.04-2.68,1.24-2.73,2.73-.46,6.29-.46,12.6,0,18.89.04,1.49,1.24,2.68,2.73,2.73,6.13.44,12.28.44,18.41,0,1.82-.16,2.99-.18,3.23-2.22.44-6.29.44-12.6,0-18.89-.06-.77-.08-2.04-.63-2.59M62.19,82.25c-.47.14-.87.46-1.1.89-.45.93-.54,18.58-.27,20.6.02,1.18.84,2.2,1.99,2.48,2.16.66,15.78.52,18.63.22s3.49-.9,3.75-3.69c.42-5.95.42-11.93-.01-17.88-.02-.8-.27-1.58-.74-2.23-1.25-1.23-19.18-.14-22.24-.38M92.43,82.23c-1.16.39-1.25,2.08-1.35,3.12-.43,5.95-.42,11.92.02,17.87.25,2.18,1.03,2.97,3.22,3.22,2.74.32,17.02.39,19.13-.23.56-.22,1.07-.55,1.5-.98v-22.39c-.44-.49-1.09-.75-1.75-.72-6.28-.79-14.31.57-20.78.1M62.7,115.47c-.87.19-1.77.64-1.85,1.62.73,3.69-1.08,19.34.24,21.57.5.84,2.06.93,2.96,1.01,6.13.44,12.28.44,18.41,0,1.49-.04,2.68-1.23,2.73-2.72.43-5.96.43-11.94,0-17.89-.18-1.99-.51-3.43-2.73-3.72-2.94-.39-17.14-.43-19.76.13M114.82,115.97c-.55-.55-1.82-.57-2.59-.63-4.27-.36-14.32-.53-18.41,0-1.49.04-2.68,1.24-2.73,2.73-.46,6.29-.46,12.6,0,18.89.04,1.49,1.24,2.68,2.73,2.73,6.13.44,12.28.44,18.41,0,1.82-.16,2.99-.18,3.23-2.22.44-6.29.44-12.6,0-18.89-.06-.77-.08-2.04-.63-2.59" fill="#1a1818"/>
        <path id="Path_66" data-name="Path 66" d="M99.32,173.31c0,1.43-1.16,2.59-2.59,2.59-1.43,0-2.59-1.16-2.59-2.59,0-1.43,1.16-2.59,2.59-2.59h0c1.43,0,2.59,1.16,2.59,2.59" fill="#1a1818"/>
      </g>
    </g>
  </g>
</svg>