<?xml version="1.0" encoding="UTF-8"?>
<svg id="Layer_1" data-name="Layer 1" xmlns="http://www.w3.org/2000/svg" xmlns:xlink="http://www.w3.org/1999/xlink" viewBox="0 0 349.9 349.9">
  <defs>
    <clipPath id="clippath">
      <rect y="0" width="349.9" height="349.9" fill="none"/>
    </clipPath>
  </defs>
  <g id="Group_80" data-name="Group 80">
    <g clip-path="url(#clippath)">
      <g id="Group_79" data-name="Group 79">
        <path id="Path_131" data-name="Path 131" d="M72.15,33.39l61.84,84.81c-31.34,22.62-38.41,66.36-15.79,97.69,22.62,31.34,66.36,38.41,97.69,15.79,31.34-22.62,38.41-66.36,15.79-97.69-13.15-18.22-34.26-29.02-56.73-29.02V0C271.57,0,349.89,78.32,349.89,174.94s-78.32,174.94-174.94,174.94S.02,271.55.02,174.94C.02,118.93,26.83,66.31,72.15,33.39" fill="#204d5f"/>
        <path id="Path_132" data-name="Path 132" d="M174.96,0v104.96c-14.71,0-29.04,4.63-40.97,13.24l-61.84-84.81C102.03,11.69,138.02,0,174.96,0" fill="#a4bac9"/>
      </g>
    </g>
  </g>
</svg>