<?xml version="1.0" encoding="UTF-8"?>
<svg id="Layer_1" data-name="Layer 1" xmlns="http://www.w3.org/2000/svg" xmlns:xlink="http://www.w3.org/1999/xlink" viewBox="0 0 638.33 442.28">
  <defs>
    <clipPath id="clippath">
      <rect width="144.76" height="442.28" fill="none"/>
    </clipPath>
    <clipPath id="clippath-1">
      <rect x="246.79" y="271.43" width="144.76" height="170.85" fill="none"/>
    </clipPath>
    <clipPath id="clippath-2">
      <rect x="493.57" y="161.94" width="144.76" height="280.34" fill="none"/>
    </clipPath>
  </defs>
  <g id="Group_66" data-name="Group 66">
    <g clip-path="url(#clippath)">
      <g id="Group_65" data-name="Group 65">
        <path id="Path_129" data-name="Path 129" d="M144.76,442.28H0V43.14C0,19.32,6.32,0,14.12,0h116.51c7.8,0,14.12,19.32,14.12,43.14v399.14Z" fill="#204d5f"/>
      </g>
    </g>
  </g>
  <g id="Group_67" data-name="Group 67">
    <g clip-path="url(#clippath-1)">
      <g id="Group_65-2" data-name="Group 65-2">
        <path id="Path_129-2" data-name="Path 129-2" d="M391.54,442.28h-144.76v-154.19c0-9.2,6.32-16.66,14.12-16.66h116.51c7.8,0,14.12,7.46,14.12,16.66v154.19Z" fill="#d6db5a"/>
      </g>
    </g>
  </g>
  <g id="Group_68" data-name="Group 68">
    <g clip-path="url(#clippath-2)">
      <g id="Group_65-3" data-name="Group 65-3">
        <path id="Path_129-3" data-name="Path 129-3" d="M638.33,442.28h-144.76v-253c0-15.1,6.32-27.34,14.12-27.34h116.51c7.8,0,14.12,12.24,14.12,27.34v253Z" fill="#204d5f"/>
      </g>
    </g>
  </g>
</svg>