<?xml version="1.0" encoding="UTF-8"?>
<svg id="Layer_1" data-name="Layer 1" xmlns="http://www.w3.org/2000/svg" xmlns:xlink="http://www.w3.org/1999/xlink" viewBox="0 0 834.92 330.42">
  <defs>
    <linearGradient id="linear-gradient" x1="0" y1="165.21" x2="834.92" y2="165.21" gradientUnits="userSpaceOnUse">
      <stop offset="0" stop-color="#e0edf0"/>
      <stop offset=".03" stop-color="#dee9ee"/>
      <stop offset=".12" stop-color="#dce6ed"/>
      <stop offset=".5" stop-color="#c8d9e1"/>
      <stop offset=".68" stop-color="#b8ccd9"/>
      <stop offset=".92" stop-color="#b4c6d3"/>
    </linearGradient>
  </defs>
  <path d="M834.92,279.37c-8.76-1.86-16.82-5.7-25.88-6.38-55.76-4.16-104.49,62.57-166.53,51.55-20.1-3.57-35.17-17.5-43.63-35.57-39.9,39.77-99.26,57.05-149.36,24.14-63.61-41.79-61.86-126.4-75.38-192.92-8.52-41.88-22.76-67.55-70.06-53.22-37.45,11.35-77.47,33.49-110.46,54.35C127.73,162.97,64.9,209.42,0,252.53v-76.02c48.71-32.88,96.6-67.09,145.95-99.03,43.34-28.04,91.86-56.29,141.66-71.06,78.43-23.26,129.36,18.65,146.34,93.55,9.5,41.88,11.26,117.57,38.14,149.66,34.37,41.02,75.58,5.28,100.26-24.91,16.22-19.85,35-59.67,66.47-41.52,23.77,13.72,13.19,48.92,16.04,72.76.11.93,1.22,6.76,1.56,6.82,29.14-4.96,53.55-24.23,79.9-36.36,31.04-14.29,64.85-21.29,98.61-12.23v65.16Z" fill="url(#linear-gradient)"/>
</svg>