<?xml version="1.0" encoding="UTF-8"?>
<svg id="Layer_1" data-name="Layer 1" xmlns="http://www.w3.org/2000/svg" viewBox="0 0 389.24 510.92">
  <path d="M389.24,246.36h-17.68v25.22c0,.9-2.77,5.87-3.59,6.89-5.23,6.6-14.15,6.53-21.11,2.74-1.55-.85-2.99-2.53-4.46-3.41-.61-.37-.47-1.12-1.29,0-21.56,54.12-50.47,105.11-83.63,152.86-16.08,23.15-36.57,52.3-58.16,70.23-5.59,4.64-13.18,11.63-20.85,9.7-16.25-4.1-49.53-47.82-60.26-62.24C68.8,382.01,3.43,272.21.14,188.4-5.58,42.2,159.82-51.41,281.9,30.4c28.45,19.06,49.17,45.45,65.53,75.32,9.16,16.73,13.37,36.09,21.21,53.47,5.89,3.43,11.61,5.33,15.9,10.96.88,1.16,4.7,7.44,4.7,8.4v67.81ZM181.6,272.24c-1.24-7.44.92-18.08,0-25.88h-18.34v-67.15c0-2.32,7.61-12.09,9.81-13.77,3.58-2.75,8.47-3.52,11.42-6.92,8.9-15.83,12.92-48.67,27.68-59.45,1.54-1.13,6.77-4.04,8.4-4.04h22.6l-13.32-7.97c-78.89-39.31-167.57,26.15-152.85,113.57,8.29,49.21,52.68,86.2,102.31,87.66,2.54.07,12.43.03,13.31-2.4,1.25-3.47-.91-2.57-2.76-3.56-3.02-1.62-7.69-6.68-8.26-10.09ZM353.21,161.19c-2.94-11.71-6.88-24.19-11.47-35.37-1.95-4.75-5.36-13.99-10.44-15.76-36.2-1.24-72.83-.62-109.11-.32-3.59,1.33-5.68,4.45-7.31,7.76-5.97,12.1-9.01,27.24-14.84,39.6-.92,1.13,1.68,4.09,2.18,4.09h150.98ZM215.76,193.93c0-10.04-8.13-18.17-18.17-18.17s-18.17,8.14-18.17,18.17,8.13,18.17,18.17,18.17,18.17-8.14,18.17-18.17ZM373.6,193.92c0-10.03-8.13-18.16-18.16-18.16s-18.16,8.13-18.16,18.16,8.13,18.16,18.16,18.16,18.16-8.13,18.16-18.16ZM265.44,246.36h-53.05v26.53c0,3.3-7.52,9.05-9.17,12.11,24.6-3.87,47.49-18.87,62.22-38.65Z" fill="#d4e272"/>
</svg>