<?xml version="1.0" encoding="UTF-8"?>
<svg id="Layer_1" data-name="Layer 1" xmlns="http://www.w3.org/2000/svg" viewBox="0 0 738.05 169.13">
  <g>
    <g>
      <path d="M273.97,8.46l56.58-.02c22.63,1.84,44.32,14.07,49.58,37.47,6.17,27.48-7.61,51.09-34.17,59.5l44.75,63.73h-32.36l-40.22-61.01h-16.94v61.01h-27.22V8.46ZM301.19,85.77c22.75.94,54.33,1.56,52.04-29.92-.88-12.12-12.81-23.84-25.12-23.84h-26.91v53.76Z" fill="#d4e272"/>
      <path d="M254.62,8.46v25.37h-42.34v134.39c0,.06-.84.91-.91.91h-26.31V33.83h-42.04c-.06,0-.91-.84-.91-.91V8.46h112.5Z" fill="#d4e272"/>
    </g>
    <g>
      <rect x="410.06" y="8.46" width="27.82" height="160.67" fill="#d4e272"/>
      <g>
        <path d="M456.02,169.13L534.36,0l78.92,169.13h-30.85l-19.03-41.72-58.29.15-18.55,41.58h-30.54ZM513.48,104.5h42.94l-21.48-49.53-21.46,49.53Z" fill="#d4e272"/>
        <path d="M658.64,108.12v61.01h-27.22V8.46c18.13.88,37.36-1.17,55.37-.03,25.96,1.65,49.2,17.52,51.11,45,1.54,22.24-8.46,40.69-29.08,49.53-16.15,6.93-33.03,4.92-50.18,5.15ZM658.64,84.57c22.73.32,54.15,2.29,52.04-29.32-1.74-26.08-33.15-23.27-52.04-23.23v52.55Z" fill="#d4e272"/>
      </g>
    </g>
  </g>
  <path d="M122.85,84.83h-5.58v7.96c0,.28-.88,1.85-1.13,2.18-1.65,2.08-4.46,2.06-6.66.86-.49-.27-.95-.8-1.41-1.08-.19-.12-.15-.35-.41,0-6.8,17.08-15.93,33.17-26.4,48.24-5.07,7.31-11.54,16.51-18.36,22.17-1.76,1.46-4.16,3.67-6.58,3.06-5.13-1.29-15.63-15.09-19.02-19.64C21.71,127.65,1.08,92.99.05,66.54-1.76,20.39,50.44-9.15,88.97,16.67c8.98,6.02,15.52,14.34,20.68,23.77,2.89,5.28,4.22,11.39,6.7,16.88,1.86,1.08,3.66,1.68,5.02,3.46.28.37,1.48,2.35,1.48,2.65v21.4ZM57.32,93c-.39-2.35.29-5.71,0-8.17h-5.79v-21.19c0-.73,2.4-3.81,3.1-4.35,1.13-.87,2.67-1.11,3.61-2.18,2.81-5,4.08-15.36,8.73-18.76.49-.36,2.14-1.28,2.65-1.28h7.13s-4.2-2.52-4.2-2.52c-24.9-12.41-52.89,8.25-48.24,35.85,2.62,15.53,16.63,27.21,32.29,27.67.8.02,3.92,0,4.2-.76.39-1.09-.29-.81-.87-1.12-.95-.51-2.43-2.11-2.61-3.18ZM111.48,57.95c-.93-3.7-2.17-7.64-3.62-11.16-.62-1.5-1.69-4.42-3.29-4.98-11.43-.39-22.99-.2-34.44-.1-1.13.42-1.79,1.4-2.31,2.45-1.88,3.82-2.84,8.6-4.68,12.5-.29.36.53,1.29.69,1.29h47.65ZM68.1,68.29c0-3.17-2.57-5.74-5.73-5.74s-5.73,2.57-5.73,5.74,2.57,5.74,5.73,5.74,5.73-2.57,5.73-5.74ZM117.92,68.28c0-3.17-2.57-5.73-5.73-5.73s-5.73,2.57-5.73,5.73,2.57,5.73,5.73,5.73,5.73-2.57,5.73-5.73ZM83.78,84.83h-16.74v8.37c0,1.04-2.37,2.86-2.89,3.82,7.77-1.22,14.99-5.96,19.64-12.2Z" fill="#d4e272"/>
</svg>