<?xml version="1.0" encoding="UTF-8"?>
<svg id="Layer_1" data-name="Layer 1" xmlns="http://www.w3.org/2000/svg" xmlns:xlink="http://www.w3.org/1999/xlink" viewBox="0 0 242 242">
  <defs>
    <clipPath id="clippath">
      <rect x="36.6" y="18" width="168.8" height="190.15" fill="none"/>
    </clipPath>
  </defs>
  <circle id="Ellipse_7-2" data-name="Ellipse 7-2" cx="121" cy="121" r="121" fill="#b4c6d3"/>
  <g id="Group_53" data-name="Group 53">
    <g clip-path="url(#clippath)">
      <g id="Group_52" data-name="Group 52">
        <path id="Path_48" data-name="Path 48" d="M168.75,70.75c.28,3.27-2.06,8.73-4.58,10.72-1.05.83-3.7,1.43-4.22,2.3-.49.84-.77,4.78-1.3,6.51-12,38.64-52.32,48.4-71.72,9.15-1.67-3.38-4.27-14.38-5.21-15.63-.82-1.08-3.87-2.14-5.51-4.26-1.57-2.04-3.39-5.6-2.29-8.13,15.38,8.1,33.71,15.63,51.53,14.35,11.28-.81,27.01-6.7,37.24-11.63,2.21-1.06,3.92-2.47,6.08-3.37" fill="#1a1818"/>
        <path id="Path_49" data-name="Path 49" d="M79.78,56.42c-1.3-.43-.8-3.03-1-3.23-.58-.59-9.76,1.14-9.1-5.5.45-4.46,10.11-11.02,13.75-13.67,17.55-12.79,33.09-21.5,54.91-12.02,6.7,2.91,30.28,17.78,32.84,23.85,1.28,3.03.41,5.49-2.71,6.71-3.84,1.5-7.25-1.38-6.24,3.86h-82.45ZM130.28,39.42c0-5.28-4.27-9.56-9.55-9.57-5.28,0-9.56,4.27-9.57,9.55,0,5.28,4.27,9.56,9.55,9.57,0,0,0,0,0,0,5.28,0,9.56-4.27,9.56-9.55h0" fill="#1a1818"/>
        <path id="Path_50" data-name="Path 50" d="M155.72,116.34l-14.78,26.62c-19.2-3.83-37.49-2.33-55.21,6.02-2.24,1.06-7.35,4.93-9.26,5.16-.64.08-1.93-1.9-3.38-2.44-6.33-2.38-14.83-.39-21.01,1.76,2.73-12.98,9.95-29.98,23.29-35,3.91-1.47,12.8-3.12,16.66-1.98.64.19,6.39,5.73,8.08,6.91,14.94,10.51,28.61,9.52,43.17-.91,4.3-3.08,6.29-7.54,12.44-6.13" fill="#1a1818"/>
        <path id="Path_51" data-name="Path 51" d="M70.33,157.36c1.05,2.67-4.34,3.77-3.91,5.52,16.79,8.35,5.56,33.14-6.72,40.18-17,9.76-25.92-9.87-22.31-24.24,3.37-13.42,19.36-23.17,32.94-21.46" fill="#1a1818"/>
        <path id="Path_52" data-name="Path 52" d="M175.92,161.93c-.2-.28-6.75-3.61-3.49-4.48,10.07-2.71,25.22,6.74,29.93,15.5,3.98,7.39,4.28,19.16-.47,26.3-14.8,22.26-47.72-19.12-29.18-34.36.61-.5,4.14-1.65,3.22-2.96" fill="#1a1818"/>
        <path id="Path_53" data-name="Path 53" d="M77.97,61.78l83.95-.16c5.43.62,4.32,4.67.48,7.01-11.22,6.83-33.74,12.88-46.79,11.91-8.47-.63-30.25-7.58-37.26-12.27-2.86-1.92-4.56-5.24-.38-6.5" fill="#1a1818"/>
        <path id="Path_54" data-name="Path 54" d="M160.93,171.68c-.8.58-6.86-4.28-8.27-5.08-2.9-1.65-19.98-9.57-21.79-6.91-1.18,1.74-.54,8.06-2.29,8.65-3.35,1.12-11.87-.62-15.85.05-.96-10.56-1.63-10.13-10.96-7.3-7.43,2.25-13.66,6.33-20.03,10.6l-4.78-8.81c22.11-18.54,55.22-20.06,80.07-5.87,1.38.79,6.39,3.73,7.15,4.58,1.81,2.02-3.55,7.12-3.26,10.08" fill="#1a1818"/>
        <path id="Path_55" data-name="Path 55" d="M145.94,208.15h-50.19c5.1-6.46,9.65-13.96,11.43-22.12.78-3.58,0-10.67,3.85-11.13,2.34-.28,20.11-.19,21.23.36,1.64.81,2.2,9.13,2.8,11.53,1.36,4.8,3.31,9.42,5.8,13.74l5.09,7.62Z" fill="#1a1818"/>
        <path id="Path_56" data-name="Path 56" d="M190.26,153.45c-5.82-1.95-14.74-4.06-20.68-2.1-1.58.52-3.38,2.76-4.4,2.76-1.42,0-12.27-7.86-15.33-7.83l15.65-27.7c14.93,3.85,21.11,21.44,24.76,34.87" fill="#1a1818"/>
      </g>
    </g>
  </g>
</svg>