<?xml version="1.0" encoding="UTF-8"?>
<svg id="Layer_1" data-name="Layer 1" xmlns="http://www.w3.org/2000/svg" xmlns:xlink="http://www.w3.org/1999/xlink" viewBox="0 0 242 242">
  <defs>
    <clipPath id="clippath">
      <rect x="16.58" y="48.6" width="215.53" height="144.79" fill="none"/>
    </clipPath>
  </defs>
  <circle id="Ellipse_8-2" data-name="Ellipse 8-2" cx="121" cy="121" r="121" fill="#b4c6d3"/>
  <g id="Group_55" data-name="Group 55">
    <g clip-path="url(#clippath)">
      <g id="Group_54" data-name="Group 54">
        <path id="Path_57" data-name="Path 57" d="M173.08,184.56c-7.09,2.71-14.39,4.82-21.83,6.3-20.54,3.83-42.53,3.44-62.75-2-1.91-.52-12.17-3.64-12.7-4.72.15-13.88-2.67-28.68,4.53-41.26,4.46-7.78,13.28-14.38,22.1-16.22,7.73-1.61,36.1-1.6,43.85,0,10.32,2.13,20.09,10.48,24.12,20.17,4.83,11.59,2.04,25.42,2.68,37.73" fill="#1a1818"/>
        <path id="Path_58" data-name="Path 58" d="M67.08,171.94c-.35,1.14-7.21.83-8.73.77-5.95-.36-11.88-1.08-17.75-2.17-8.1-1.31-16.02-3.59-23.57-6.8-.16-18.95-3.88-38.56,13.25-51.45,12.34-9.28,34.96-8.16,50.03-7.28,2.11.12,10.23,1.12,11.41,2.52.57.67,1.91,4.47,2.67,5.79.59,1.02,3.46,4.56,3.52,4.95.19,1.25-4.38,2.16-5.61,2.74-11.46,5.43-25.22,20.72-25.22,34.01v16.92Z" fill="#1a1818"/>
        <path id="Path_59" data-name="Path 59" d="M181.61,154.53c-1.44-14.26-12.66-27.48-25.22-33.51-1.17-.56-5.9-1.71-5.65-2.8,2.76-1.43,5.24-9.98,6.6-11.08,1.1-.89,9.21-2.02,11.06-2.14,10.13-.57,20.29-.57,30.42,0,12.63.87,24.52,8.39,29.87,19.91,5.45,11.72,2.68,26.22,2.98,38.83-7.55,3.21-15.47,5.49-23.57,6.8-5.87,1.09-11.8,1.82-17.75,2.18-1.31.05-8.73.34-8.73-.77,0-5.4.53-12.22,0-17.41" fill="#1a1818"/>
        <path id="Path_60" data-name="Path 60" d="M91.76,74.83c.01,14.5-11.73,26.26-26.22,26.28-14.5.01-26.26-11.73-26.28-26.22-.01-14.5,11.73-26.26,26.22-26.28,0,0,.02,0,.03,0,14.49,0,26.24,11.73,26.25,26.22h0" fill="#1a1818"/>
        <path id="Path_61" data-name="Path 61" d="M209.45,74.83c.01,14.5-11.73,26.26-26.22,26.27s-26.26-11.73-26.27-26.22c-.01-14.5,11.73-26.26,26.22-26.27,0,0,.01,0,.02,0,14.49,0,26.24,11.73,26.25,26.22h0" fill="#1a1818"/>
        <path id="Path_62" data-name="Path 62" d="M150.61,95.47c.01,14.49-11.72,26.25-26.21,26.26-14.49.01-26.25-11.72-26.26-26.21-.01-14.49,11.72-26.25,26.21-26.26,0,0,.02,0,.03,0,14.48,0,26.23,11.73,26.24,26.21" fill="#1a1818"/>
      </g>
    </g>
  </g>
</svg>