<?xml version="1.0" encoding="UTF-8"?>
<svg id="Layer_1" data-name="Layer 1" xmlns="http://www.w3.org/2000/svg" xmlns:xlink="http://www.w3.org/1999/xlink" viewBox="0 0 255.25 270.21">
  <defs>
    <clipPath id="clippath">
      <rect width="255.25" height="270.21" fill="none"/>
    </clipPath>
  </defs>
  <g clip-path="url(#clippath)">
    <g id="Group_36" data-name="Group 36">
      <path id="Path_6" data-name="Path 6" d="M255.25,135.1c0,74.62-57.14,135.1-127.62,135.1S0,209.72,0,135.1,57.14,0,127.62,0s127.62,60.49,127.62,135.1" fill="#1a1818"/>
      <path id="Path_7" data-name="Path 7" d="M102.79,156.53c20.84-1.91,41.85-1.16,62.5,2.24,23.5,6.88,42.03,25.02,49.4,48.37,1.63,5.96.9,5.53-3.11,9.57-40.69,42.59-106.89,47.79-153.73,12.07-6.5-4.97-12.54-10.53-18.02-16.6,1.14-6.45,3.4-12.65,6.68-18.32,11.25-21.16,32.42-35.2,56.29-37.33" fill="#fff"/>
      <path id="Path_8" data-name="Path 8" d="M178.09,81.76c1.6,27.82-19.66,51.67-47.48,53.27-27.82,1.6-51.67-19.66-53.27-47.48-.11-1.93-.11-3.86,0-5.79-1.6-27.82,19.66-51.67,47.48-53.27,27.82-1.6,51.67,19.66,53.27,47.48.11,1.93.11,3.86,0,5.79" fill="#fff"/>
    </g>
  </g>
</svg>