<?xml version="1.0" encoding="UTF-8"?>
<svg id="Layer_1" data-name="Layer 1" xmlns="http://www.w3.org/2000/svg" xmlns:xlink="http://www.w3.org/1999/xlink" viewBox="0 0 784.39 387.45">
  <defs>
    <clipPath id="clippath">
      <rect x="85.57" y="45.96" width="70.02" height="81.44" fill="none"/>
    </clipPath>
    <clipPath id="clippath-1">
      <rect x="346.01" y="59.24" width="80.61" height="65.22" fill="none"/>
    </clipPath>
    <clipPath id="clippath-2">
      <rect x="93.89" y="251.96" width="77.77" height="76.84" fill="none"/>
    </clipPath>
    <clipPath id="clippath-3">
      <rect x="353.39" y="248.4" width="82.52" height="83.96" fill="none"/>
    </clipPath>
    <clipPath id="clippath-4">
      <rect x="617.03" y="51.57" width="73.28" height="72.89" fill="none"/>
    </clipPath>
    <clipPath id="clippath-5">
      <rect x="622.85" y="245.03" width="70.93" height="90.7" fill="none"/>
    </clipPath>
  </defs>
  <rect id="Rectangle_119-2" data-name="Rectangle 119-2" width="248.55" height="184.06" rx="14.23" ry="14.23" fill="#d7db5a"/>
  <rect id="Rectangle_120-2" data-name="Rectangle 120-2" x="0" y="203.38" width="248.55" height="184.06" rx="14.23" ry="14.23" fill="#d7db5a"/>
  <rect id="Rectangle_121-2" data-name="Rectangle 121-2" x="267.92" width="248.55" height="184.06" rx="14.23" ry="14.23" fill="#d7db5a"/>
  <rect id="Rectangle_122-2" data-name="Rectangle 122-2" x="267.92" y="203.38" width="248.55" height="184.06" rx="14.23" ry="14.23" fill="#d7db5a"/>
  <rect id="Rectangle_123-2" data-name="Rectangle 123-2" x="535.83" width="248.55" height="184.06" rx="14.23" ry="14.23" fill="#d7db5a"/>
  <rect id="Rectangle_124-2" data-name="Rectangle 124-2" x="535.83" y="203.38" width="248.55" height="184.06" rx="14.23" ry="14.23" fill="#d7db5a"/>
  <g id="Economia_inteligente" data-name="Economia inteligente" isolation="isolate">
    <text transform="translate(21.58 34.2)" font-family="SFPro-Regular, &apos;SF Pro&apos;" font-size="22.05" font-variation-settings="&apos;wdth&apos; 100, &apos;opsz&apos; 28, &apos;wght&apos; 400" isolation="isolate"><tspan x="0" y="0">Economia in</tspan><tspan x="112.27" y="0" letter-spacing="-.01em">t</tspan><tspan x="118.59" y="0" letter-spacing="0em">eligen</tspan><tspan x="173.96" y="0" letter-spacing="-.01em">t</tspan><tspan x="180.28" y="0">e</tspan></text>
  </g>
  <g id="Simples_e_gratuito" data-name="Simples e gratuito" isolation="isolate">
    <text transform="translate(567.72 234.15)" font-family="SFPro-Regular, &apos;SF Pro&apos;" font-size="22.05" font-variation-settings="&apos;wdth&apos; 100, &apos;opsz&apos; 28, &apos;wght&apos; 400" isolation="isolate"><tspan x="0" y="0">Simples e g</tspan><tspan x="105.96" y="0" letter-spacing="0em">r</tspan><tspan x="112.54" y="0">atui</tspan><tspan x="146.42" y="0" letter-spacing="-.01em">t</tspan><tspan x="152.74" y="0">o</tspan></text>
  </g>
  <g id="Versatilidade" isolation="isolate">
    <text transform="translate(326.88 234.15)" font-family="SFPro-Regular, &apos;SF Pro&apos;" font-size="22.05" font-variation-settings="&apos;wdth&apos; 100, &apos;opsz&apos; 28, &apos;wght&apos; 400" isolation="isolate"><tspan x="0" y="0" letter-spacing="-.07em">V</tspan><tspan x="12.41" y="0">ersatilidade</tspan></text>
  </g>
  <g id="Tecnologia" isolation="isolate">
    <text transform="translate(71.94 234.15)" font-family="SFPro-Regular, &apos;SF Pro&apos;" font-size="22.05" font-variation-settings="&apos;wdth&apos; 100, &apos;opsz&apos; 28, &apos;wght&apos; 400" isolation="isolate"><tspan x="0" y="0" letter-spacing="-.13em">T</tspan><tspan x="9.91" y="0" letter-spacing="0em">ecnologia</tspan></text>
  </g>
  <g id="Comparação" isolation="isolate">
    <text transform="translate(593.4 34.2)" font-family="SFPro-Regular, &apos;SF Pro&apos;" font-size="22.05" font-variation-settings="&apos;wdth&apos; 100, &apos;opsz&apos; 28, &apos;wght&apos; 400" isolation="isolate"><tspan x="0" y="0">Compa</tspan><tspan x="67.73" y="0" letter-spacing="0em">r</tspan><tspan x="74.31" y="0">ação</tspan></text>
  </g>
  <g id="Melhor_horário" data-name="Melhor horário" isolation="isolate">
    <text transform="translate(319.56 34.2)" font-family="SFPro-Regular, &apos;SF Pro&apos;" font-size="22.05" font-variation-settings="&apos;wdth&apos; 100, &apos;opsz&apos; 28, &apos;wght&apos; 400" isolation="isolate"><tspan x="0" y="0">Melhor ho</tspan><tspan x="92.63" y="0" letter-spacing="0em">r</tspan><tspan x="99.21" y="0" letter-spacing="0em">ário</tspan></text>
  </g>
  <g id="Evite_pagar_mais_do_que_precisa._A_Triap_analisa_os_preços_e_mostra_a_opção_mais_econômica." data-name="Evite pagar mais do que precisa. A Triap analisa os preços e mostra a opção mais econômica." isolation="isolate">
    <text transform="translate(39.88 147.41)" font-family="SFPro-Regular, &apos;SF Pro&apos;" font-size="11.03" font-variation-settings="&apos;wdth&apos; 100, &apos;opsz&apos; 28, &apos;wght&apos; 400" isolation="isolate"><tspan x="0" y="0">Evi</tspan><tspan x="13.69" y="0" letter-spacing="-.01em">t</tspan><tspan x="16.85" y="0" letter-spacing="0em">e pagar mais do que p</tspan><tspan x="117.7" y="0" letter-spacing="-.02em">r</tspan><tspan x="120.83" y="0">ecisa</tspan><tspan x="144.94" y="0" letter-spacing="-.05em">.</tspan></text>
    <text transform="translate(13.78 160.64)" font-family="SFPro-Regular, &apos;SF Pro&apos;" font-size="11.03" font-variation-settings="&apos;wdth&apos; 100, &apos;opsz&apos; 28, &apos;wght&apos; 400" isolation="isolate"><tspan x="0" y="0">A </tspan><tspan x="9.27" y="0" letter-spacing="-.11em">T</tspan><tspan x="14.44" y="0">riap analisa os p</tspan><tspan x="87.59" y="0" letter-spacing="-.02em">r</tspan><tspan x="90.72" y="0">eços e most</tspan><tspan x="146.21" y="0" letter-spacing="0em">r</tspan><tspan x="149.5" y="0">a a opção </tspan></text>
    <text transform="translate(82.7 173.87)" font-family="SFPro-Regular, &apos;SF Pro&apos;" font-size="11.03" font-variation-settings="&apos;wdth&apos; 100, &apos;opsz&apos; 28, &apos;wght&apos; 400" isolation="isolate"><tspan x="0" y="0">mais econômica</tspan><tspan x="74.93" y="0" letter-spacing="-.05em">.</tspan></text>
  </g>
  <g id="Nada_de_complicação._Você_informa_o_trajeto_e_a_Triap_entrega_as_melhores_opções_em_segundos." data-name="Nada de complicação. Você informa o trajeto e a Triap entrega as melhores opções em segundos." isolation="isolate">
    <text transform="translate(600.63 348.1)" font-family="SFPro-Regular, &apos;SF Pro&apos;" font-size="11.03" font-variation-settings="&apos;wdth&apos; 100, &apos;opsz&apos; 28, &apos;wght&apos; 400" isolation="isolate"><tspan x="0" y="0" letter-spacing="-.01em">N</tspan><tspan x="7.55" y="0">ada de complicaçã</tspan><tspan x="93.93" y="0" letter-spacing="-.03em">o</tspan><tspan x="99.46" y="0" letter-spacing="-.05em">.</tspan></text>
    <text transform="translate(555.13 361.33)" font-family="SFPro-Regular, &apos;SF Pro&apos;" font-size="11.03" font-variation-settings="&apos;wdth&apos; 100, &apos;opsz&apos; 28, &apos;wght&apos; 400" isolation="isolate"><tspan x="0" y="0" letter-spacing="-.07em">V</tspan><tspan x="6.2" y="0">ocê in</tspan><tspan x="33.57" y="0" letter-spacing="-.05em">f</tspan><tspan x="36.38" y="0">orma o t</tspan><tspan x="73.72" y="0" letter-spacing="0em">r</tspan><tspan x="77.01" y="0" letter-spacing="0em">aje</tspan><tspan x="90.46" y="0" letter-spacing="-.01em">t</tspan><tspan x="93.62" y="0">o e a </tspan><tspan x="117.44" y="0" letter-spacing="-.11em">T</tspan><tspan x="122.61" y="0">riap ent</tspan><tspan x="156.91" y="0" letter-spacing="-.02em">r</tspan><tspan x="160.04" y="0" letter-spacing="0em">ega </tspan></text>
    <text transform="translate(569.11 374.57)" font-family="SFPro-Regular, &apos;SF Pro&apos;" font-size="11.03" font-variation-settings="&apos;wdth&apos; 100, &apos;opsz&apos; 28, &apos;wght&apos; 400" isolation="isolate"><tspan x="0" y="0">as melho</tspan><tspan x="41.48" y="0" letter-spacing="-.02em">r</tspan><tspan x="44.61" y="0">es opções em segundos</tspan><tspan x="156.28" y="0" letter-spacing="-.05em">.</tspan></text>
  </g>
  <g id="Uma_solução_para_cada_necessidade._Ideal_para_quem_viaja_trabalha_dirigindo_ou_gerencia_transporte_de_equipes." data-name="Uma solução para cada necessidade. Ideal para quem viaja trabalha dirigindo ou gerencia transporte de equipes." isolation="isolate">
    <text transform="translate(292.82 348.84)" font-family="SFPro-Regular, &apos;SF Pro&apos;" font-size="11.03" font-variation-settings="&apos;wdth&apos; 100, &apos;opsz&apos; 28, &apos;wght&apos; 400" isolation="isolate"><tspan x="0" y="0">Uma solução pa</tspan><tspan x="74.14" y="0" letter-spacing="0em">r</tspan><tspan x="77.43" y="0">a cada necessidade</tspan><tspan x="168.75" y="0" letter-spacing="-.05em">.</tspan></text>
    <text transform="translate(277.95 362.07)" font-family="SFPro-Regular, &apos;SF Pro&apos;" font-size="11.03" font-variation-settings="&apos;wdth&apos; 100, &apos;opsz&apos; 28, &apos;wght&apos; 400" isolation="isolate"><tspan x="0" y="0">Ideal pa</tspan><tspan x="35.87" y="0" letter-spacing="0em">r</tspan><tspan x="39.16" y="0">a quem viaja</tspan><tspan x="96.51" y="0" letter-spacing="-.05em">,</tspan><tspan x="98.34" y="0" xml:space="preserve"> t</tspan><tspan x="103.93" y="0" letter-spacing="0em">r</tspan><tspan x="107.22" y="0">abalha dirigindo ou </tspan></text>
    <text transform="translate(308.43 375.3)" font-family="SFPro-Regular, &apos;SF Pro&apos;" font-size="11.03" font-variation-settings="&apos;wdth&apos; 100, &apos;opsz&apos; 28, &apos;wght&apos; 400" isolation="isolate"><tspan x="0" y="0">ge</tspan><tspan x="11.7" y="0" letter-spacing="-.02em">r</tspan><tspan x="14.83" y="0" letter-spacing="0em">encia t</tspan><tspan x="45.2" y="0" letter-spacing="0em">r</tspan><tspan x="48.49" y="0">anspo</tspan><tspan x="76.88" y="0" letter-spacing=".02em">r</tspan><tspan x="80.54" y="0" letter-spacing="-.01em">t</tspan><tspan x="83.7" y="0">e de equipes</tspan><tspan x="142.25" y="0" letter-spacing="-.05em">.</tspan></text>
  </g>
  <g id="Inteligência_artificial_a_seu_favor._A_Triap_melhora_suas_previsões_a_cada_uso_com_base_em_dados_reais." data-name="Inteligência artificial a seu favor. A Triap melhora suas previsões a cada uso com base em dados reais." isolation="isolate">
    <text transform="translate(37.7 348.84)" font-family="SFPro-Regular, &apos;SF Pro&apos;" font-size="11.03" font-variation-settings="&apos;wdth&apos; 100, &apos;opsz&apos; 28, &apos;wght&apos; 400" isolation="isolate"><tspan x="0" y="0">In</tspan><tspan x="8.29" y="0" letter-spacing="-.01em">t</tspan><tspan x="11.45" y="0" letter-spacing="0em">eligência a</tspan><tspan x="60.26" y="0" letter-spacing=".02em">r</tspan><tspan x="63.92" y="0">tificial a seu </tspan><tspan x="119.63" y="0" letter-spacing="-.03em">f</tspan><tspan x="122.65" y="0" letter-spacing="0em">a</tspan><tspan x="128.19" y="0" letter-spacing="-.02em">v</tspan><tspan x="133.3" y="0">o</tspan><tspan x="139.15" y="0" letter-spacing="-.05em">r.</tspan></text>
    <text transform="translate(10.39 362.07)" font-family="SFPro-Regular, &apos;SF Pro&apos;" font-size="11.03" font-variation-settings="&apos;wdth&apos; 100, &apos;opsz&apos; 28, &apos;wght&apos; 400" isolation="isolate"><tspan x="0" y="0">A </tspan><tspan x="9.27" y="0" letter-spacing="-.11em">T</tspan><tspan x="14.44" y="0">riap melho</tspan><tspan x="62.51" y="0" letter-spacing="0em">r</tspan><tspan x="65.8" y="0">a suas p</tspan><tspan x="103.52" y="0" letter-spacing="-.02em">r</tspan><tspan x="106.65" y="0" letter-spacing="-.02em">e</tspan><tspan x="112.08" y="0">visões a cada us</tspan><tspan x="187.4" y="0" letter-spacing="-.03em">o</tspan><tspan x="192.93" y="0" letter-spacing="-.05em">,</tspan><tspan x="194.77" y="0" letter-spacing="0em"> </tspan></text>
    <text transform="translate(56.4 375.3)" font-family="SFPro-Regular, &apos;SF Pro&apos;" font-size="11.03" font-variation-settings="&apos;wdth&apos; 100, &apos;opsz&apos; 28, &apos;wght&apos; 400" isolation="isolate"><tspan x="0" y="0">com base em dados </tspan><tspan x="94.94" y="0" letter-spacing="-.02em">r</tspan><tspan x="98.06" y="0">eais</tspan><tspan x="116.65" y="0" letter-spacing="-.05em">.</tspan></text>
  </g>
  <g id="Escolha_com_base_em_dados._Veja_qual_aplicativo_de_transporte_oferece_o_melhor_custo-benefício_para_você." data-name="Escolha com base em dados. Veja qual aplicativo de transporte oferece o melhor custo-benefício para você." isolation="isolate">
    <text transform="translate(586.77 147.41)" font-family="SFPro-Regular, &apos;SF Pro&apos;" font-size="11.03" font-variation-settings="&apos;wdth&apos; 100, &apos;opsz&apos; 28, &apos;wght&apos; 400" isolation="isolate"><tspan x="0" y="0">Escolha com base em dados</tspan><tspan x="131.26" y="0" letter-spacing="-.05em">.</tspan></text>
    <text transform="translate(553.94 160.64)" font-family="SFPro-Regular, &apos;SF Pro&apos;" font-size="11.03" font-variation-settings="&apos;wdth&apos; 100, &apos;opsz&apos; 28, &apos;wght&apos; 400" isolation="isolate"><tspan x="0" y="0" letter-spacing="-.07em">V</tspan><tspan x="6.2" y="0" letter-spacing="0em">eja qual aplicati</tspan><tspan x="76.59" y="0" letter-spacing="-.02em">v</tspan><tspan x="81.7" y="0">o de t</tspan><tspan x="107.15" y="0" letter-spacing="0em">r</tspan><tspan x="110.44" y="0">anspo</tspan><tspan x="138.82" y="0" letter-spacing=".02em">r</tspan><tspan x="142.49" y="0" letter-spacing="-.01em">t</tspan><tspan x="145.65" y="0" letter-spacing="0em">e o</tspan><tspan x="159.41" y="0" letter-spacing="-.05em">f</tspan><tspan x="162.22" y="0">e</tspan><tspan x="167.87" y="0" letter-spacing="-.02em">r</tspan><tspan x="171" y="0">ece </tspan></text>
    <text transform="translate(569.59 173.87)" font-family="SFPro-Regular, &apos;SF Pro&apos;" font-size="11.03" font-variation-settings="&apos;wdth&apos; 100, &apos;opsz&apos; 28, &apos;wght&apos; 400" isolation="isolate"><tspan x="0" y="0">o melhor cus</tspan><tspan x="58.79" y="0" letter-spacing="-.01em">t</tspan><tspan x="61.95" y="0">o-benefício pa</tspan><tspan x="128.87" y="0" letter-spacing="0em">r</tspan><tspan x="132.16" y="0">a </tspan><tspan x="139.95" y="0" letter-spacing="-.02em">v</tspan><tspan x="145.06" y="0">ocê</tspan><tspan x="162.09" y="0" letter-spacing="-.05em">.</tspan></text>
  </g>
  <g id="A_hora_certa_faz_a_diferença._Descubra_os_períodos_mais_vantajosos_para_sair_e_economize_ainda_mais." data-name="A hora certa faz a diferença. Descubra os períodos mais vantajosos para sair e economize ainda mais." isolation="isolate">
    <text transform="translate(316.58 147.41)" font-family="SFPro-Regular, &apos;SF Pro&apos;" font-size="11.03" font-variation-settings="&apos;wdth&apos; 100, &apos;opsz&apos; 28, &apos;wght&apos; 400" isolation="isolate"><tspan x="0" y="0">A ho</tspan><tspan x="21.06" y="0" letter-spacing="0em">r</tspan><tspan x="24.35" y="0">a ce</tspan><tspan x="43.32" y="0" letter-spacing=".02em">r</tspan><tspan x="46.99" y="0" letter-spacing="0em">t</tspan><tspan x="50.2" y="0" letter-spacing="0em">a </tspan><tspan x="58" y="0" letter-spacing="-.03em">f</tspan><tspan x="61.03" y="0" letter-spacing="0em">a</tspan><tspan x="66.51" y="0">z a di</tspan><tspan x="90.1" y="0" letter-spacing="-.05em">f</tspan><tspan x="92.91" y="0">e</tspan><tspan x="98.56" y="0" letter-spacing="-.02em">r</tspan><tspan x="101.69" y="0">ença</tspan><tspan x="124.2" y="0" letter-spacing="-.05em">.</tspan></text>
    <text transform="translate(290.03 160.64)" font-family="SFPro-Regular, &apos;SF Pro&apos;" font-size="11.03" font-variation-settings="&apos;wdth&apos; 100, &apos;opsz&apos; 28, &apos;wght&apos; 400" isolation="isolate"><tspan x="0" y="0">Descub</tspan><tspan x="35.7" y="0" letter-spacing="0em">r</tspan><tspan x="38.99" y="0">a os períodos mais </tspan><tspan x="126.67" y="0" letter-spacing="0em">v</tspan><tspan x="131.89" y="0">an</tspan><tspan x="143.23" y="0" letter-spacing="0em">t</tspan><tspan x="146.45" y="0">ajosos </tspan></text>
    <text transform="translate(303.78 173.87)" font-family="SFPro-Regular, &apos;SF Pro&apos;" font-size="11.03" font-variation-settings="&apos;wdth&apos; 100, &apos;opsz&apos; 28, &apos;wght&apos; 400" isolation="isolate"><tspan x="0" y="0">pa</tspan><tspan x="11.59" y="0" letter-spacing="0em">r</tspan><tspan x="14.88" y="0" letter-spacing="0em">a sair e economi</tspan><tspan x="89" y="0" letter-spacing="-.02em">z</tspan><tspan x="93.94" y="0">e ainda mais</tspan><tspan x="151.17" y="0" letter-spacing="-.05em">.</tspan></text>
  </g>
  <g id="Group_41" data-name="Group 41">
    <g clip-path="url(#clippath)">
      <g id="Group_40" data-name="Group 40">
        <path id="Path_10" data-name="Path 10" d="M93.55,62.41c0,2.2-1.78,3.99-3.98,4-2.2,0-3.99-1.78-4-3.98,0-2.2,1.78-3.99,3.98-4,0,0,0,0,0,0,2.2,0,3.99,1.78,3.99,3.98M90.87,62.37c0-.7-.57-1.27-1.27-1.27s-1.27.57-1.27,1.27c0,.7.57,1.27,1.27,1.27,0,0,0,0,0,0,.7,0,1.27-.56,1.27-1.26,0,0,0,0,0,0" fill="#1a1818"/>
        <path id="Path_11" data-name="Path 11" d="M100.55,46c1.02-.26,1.61.89,2.15.98.69.11,1.9-1.93,3.03-.51.98,1.22-.59,1.92-.7,2.61-.11.73,1.75,1.63.67,2.83-1.02,1.13-2.41-.58-3-.49-.56.08-1.95,1.91-2.97.3-.66-1.04.93-1.93.87-2.65-.05-.59-2.2-2.51-.05-3.06" fill="#1a1818"/>
        <path id="Path_12" data-name="Path 12" d="M88.22,79.6c0,.73-.59,1.32-1.32,1.32s-1.32-.59-1.32-1.32c0-.73.59-1.32,1.32-1.32,0,0,0,0,0,0,.73,0,1.32.59,1.32,1.32h0" fill="#1a1818"/>
        <path id="Path_13" data-name="Path 13" d="M122.66,111.44v-23.57c0-.43-5.01-5.67-5.64-6.61-1.27.18-6.3,3.07-7.19,1.77-.24-.56-.28-1.18-.1-1.76.21-.34,6.92-2.89,7.37-2.93.5-.12,1.03,0,1.43.33.72,1.44,7.01,7.97,7.01,8.84v23.93h7.03c.46.24.89.54,1.27.89,1.36,1.58.42,2.78.42,4.33,0,1.46.94,2.85-.42,4.33-.51.56-1.7.84-1.76.94-.61,1,.65,3.83-2.37,5.01-1.42.55-8.01.53-9.76.33-1.45-.16-3.17-1.04-3.63-2.5-.28-.89.02-2.47-.22-2.85-.15-.24-1.83-.33-2.31-1.83-.53-1.66.37-4.29-.16-6.24-.06-.23-1.22-.84-1.64-1.32-1.93-2.26-.99-4.04-1.29-6.63-.69-6.04-6.3-9.13-9.17-14.25-7-12.45-2.58-28.22,9.87-35.22,2.18-1.23,4.53-2.13,6.97-2.68,1.27-.29,6.29-1.36,6.75-.02.9,2.67-3.62,2.09-5.39,2.45-12.62,2.42-20.88,14.61-18.46,27.23.21,1.12.51,2.22.89,3.29,2.51,7.42,9.56,10.37,11,17.81.29,1.54.15,4.89.51,5.97.3.43.72.77,1.2.96h7.75ZM116.71,113.96c-.8.32-.47,1.44,0,1.44h14.79c.62,0,.62-1.44,0-1.44h-14.79ZM116.71,117.92c-.8.32-.47,1.44,0,1.44h14.79c.62,0,.62-1.44,0-1.44h-14.79ZM128.97,121.88c-1.28-.39-7.8,0-9.74,0-.68,0-.81,2.18.26,2.64,1.04.44,8.9.46,9.57-.21.51-.51.7-2.19-.09-2.43" fill="#1a1818"/>
        <path id="Path_14" data-name="Path 14" d="M148.31,67.86c.11.13,2.37.76,3.18,1.32,5.34,3.71,5.19,10.82,1.12,15.47-.48.54-1.61.99-1.78,1.49-.24.71.36,2.21.23,3.43-.29,2.89-2.31,4.04-2.71,5.59-.28,1.09.04,2.34-.12,3.48-.62,2.96-2.82,5.33-5.72,6.17-1.75.37-4.08-.33-4.82-.15-.46.11-1.1,1.09-1.8,1.46-2.13,1.12-5.9,1-7.65-.79v-48.93c2.67-3.02,8.52-3.18,10.8.37.5.77.89,2.82,1.26,3.06,1.21.79,3.43-.46,5.98,2.31,1.88,2.05,1.82,5.48,2.02,5.72M144.18,63.7c-1.51-1.57-4-1.63-5.57-.12-.92.88-1.36,2.16-1.17,3.42.14,1.49,2.54,3.43.74,4.32-2.14,1.06-3.64-3.4-3.63-5.05.02-3.57,3.57-4.55,2.63-7.28-.93-2.7-4.81-3.09-6.5-.93l.11,45.45c.96,1.95,6.08.39,5.16-3.7-.54-2.4-3.03-1.88-3.56-2.66-.31-.46-.28-1.79.27-1.93,2.31-.57,5.33,1.14,5.81,3.52.46,2.27-1.03,4.13,2.69,3.63,2.33-.34,4.18-2.15,4.58-4.47.15-1.37-.66-2.83-.53-3.42.19-.86,1.62-1.72,2.15-2.5,1.97-2.93,1.16-6.93-2.85-6.83-1.22.03-6.46,3.68-5.17-.08.78-2.26,4.93-2.72,6.94-2.4,2.52.41,2.92,2.51,5.41-1.12,2.11-3.09,1.74-7.82-1.48-9.99-1.14-.77-4.33-1.35-4.63-1.86-.78-1.31.69-4.03-1.38-6" fill="#1a1818"/>
        <path id="Path_15" data-name="Path 15" d="M110.35,65.43c.78,1.22-3.51,6.44-4.16,7.83-4.67.62,1.6-7.94,2.66-8.19.52-.03,1.04.1,1.5.36" fill="#1a1818"/>
        <path id="Path_16" data-name="Path 16" d="M118.28,60.03c.14.49.14,1.02,0,1.51-.25.66-4.91,2.96-5.81,2.7-3.77-1.09,4.86-5.72,5.82-4.21" fill="#1a1818"/>
      </g>
    </g>
  </g>
  <g id="Group_43" data-name="Group 43">
    <g clip-path="url(#clippath-1)">
      <g id="Group_42" data-name="Group 42">
        <path id="Path_17" data-name="Path 17" d="M380.87,121.76c-.28-.44.25-2.09.76-2.16.22-.03,3.47,1.32,4.28,1.53,28.02,7.06,49.5-24.13,32.42-47.34-13.01-17.68-40.23-15.96-50.96,3.14-.53.94-2.28,5.45-2.54,5.62-.21.14-1.81-.25-1.96-.71-.42-1.32,3.72-8.18,4.75-9.55,15.41-20.54,48.07-16.08,56.9,8.04,9.11,24.9-12.9,49.39-38.67,43.14-.68-.17-4.83-1.47-4.98-1.71" fill="#1a1818"/>
        <path id="Path_18" data-name="Path 18" d="M421.91,90.92c2.16,2.1-3.91,3.26-4.36,1.24-.47-2.14,3.58-2,4.36-1.24" fill="#1a1818"/>
        <path id="Path_19" data-name="Path 19" d="M394.8,115.69c.7.72,1.03,4.97-1.33,4.1-1.87-.69-.63-6.12,1.33-4.1" fill="#1a1818"/>
        <path id="Path_20" data-name="Path 20" d="M394.8,67.95c-2.4,2.46-3.33-5.57-.24-4,.95.48.87,3.36.24,4" fill="#1a1818"/>
        <path id="Path_21" data-name="Path 21" d="M408.2,116.18c-1.83,1.76-4.68-4.07-2.05-4.04,1.05.01,2.92,3.21,2.05,4.04" fill="#1a1818"/>
        <path id="Path_22" data-name="Path 22" d="M408.2,67.46c.83.81-1.07,4.03-2.05,4.04-2.64.02.2-5.83,2.05-4.04" fill="#1a1818"/>
        <path id="Path_23" data-name="Path 23" d="M380.4,67.08c1.23-.31,3.69,3.91,1.43,4.38-1.34.28-3.49-3.86-1.43-4.38" fill="#1a1818"/>
        <path id="Path_24" data-name="Path 24" d="M418.35,77.53c.19.34.31.72.36,1.1-.09,1.21-4.76,3.57-4.24.65.17-.95,3.02-2.3,3.88-1.75" fill="#1a1818"/>
        <path id="Path_25" data-name="Path 25" d="M418.35,106.11c-.86.55-3.72-.8-3.88-1.75-.61-3.46,6.08.36,3.88,1.75" fill="#1a1818"/>
        <path id="Path_26" data-name="Path 26" d="M369.96,77.54c.99-.29,3.56,1.05,3.57,2.06.03,3.05-6.76-1.12-3.57-2.06" fill="#1a1818"/>
        <path id="Path_27" data-name="Path 27" d="M385.48,115.24h-21.57c-.58,0-1.06-.47-1.06-1.06s.47-1.06,1.06-1.06h21.57c.58,0,1.06.47,1.06,1.06s-.47,1.06-1.06,1.06" fill="#1a1818"/>
        <path id="Path_28" data-name="Path 28" d="M376.72,110.85h-21.57c-.58,0-1.06-.47-1.06-1.06s.47-1.06,1.06-1.06h21.57c.58,0,1.06.47,1.06,1.06s-.47,1.06-1.06,1.06" fill="#1a1818"/>
        <path id="Path_29" data-name="Path 29" d="M385.48,105.65h-21.57c-.58,0-1.06-.47-1.06-1.06s.47-1.06,1.06-1.06h21.57c.58,0,1.06.47,1.06,1.06s-.47,1.06-1.06,1.06" fill="#1a1818"/>
        <path id="Path_30" data-name="Path 30" d="M375.71,101.27h-21.57c-.58,0-1.06-.47-1.06-1.06s.47-1.06,1.06-1.06h21.57c.58,0,1.06.47,1.06,1.06s-.47,1.06-1.06,1.06" fill="#1a1818"/>
        <path id="Path_31" data-name="Path 31" d="M370.26,96.22h-21.57c-.58,0-1.06-.47-1.06-1.06s.47-1.06,1.06-1.06h21.57c.58,0,1.06.47,1.06,1.06s-.47,1.06-1.06,1.06" fill="#1a1818"/>
        <path id="Path_32" data-name="Path 32" d="M379.89,91.47h-21.57c-.58,0-1.06-.47-1.06-1.06s.47-1.06,1.06-1.06h21.57c.58,0,1.06.47,1.06,1.06s-.47,1.06-1.06,1.06" fill="#1a1818"/>
        <path id="Path_33" data-name="Path 33" d="M368.64,87.21h-21.57c-.58,0-1.06-.47-1.06-1.06s.47-1.06,1.06-1.06h21.57c.58,0,1.06.47,1.06,1.06s-.47,1.06-1.06,1.06" fill="#1a1818"/>
        <path id="Path_34" data-name="Path 34" d="M410.72,94.87c.93.28.53,2.25-.66,2.27h-12.99c-2.05,3.72-7.37,2.02-6.37-2.37.32-1.4,1.83-1.63,1.92-2.34.31-2.55-.62-15.04.38-16.06.53-.41,1.27-.41,1.8,0,1.03,1.06.06,13.93.4,16.31.77.14,1.98,2.19,2.13,2.19h13.39Z" fill="#1a1818"/>
        <path id="Path_35" data-name="Path 35" d="M397.59,95.68c0,1.94-1.57,3.51-3.51,3.51-1.94,0-3.51-1.57-3.51-3.51,0-1.94,1.57-3.51,3.51-3.51s3.51,1.57,3.51,3.51h0" fill="#1a1818"/>
        <path id="Path_36" data-name="Path 36" d="M394.08,93.63h-.33c-.65,0-1.18-.53-1.18-1.18v-15.74c0-.65.53-1.19,1.18-1.19h.33c.65,0,1.18.53,1.18,1.19v15.74c0,.65-.53,1.18-1.18,1.18" fill="#1a1818"/>
        <path id="Path_37" data-name="Path 37" d="M393.49,95.97v-.33c0-.65.54-1.18,1.19-1.18l15.74.07c.65,0,1.18.54,1.18,1.19v.33c0,.65-.54,1.18-1.19,1.18l-15.74-.07c-.65,0-1.18-.54-1.18-1.19" fill="#1a1818"/>
      </g>
    </g>
  </g>
  <g id="Group_49" data-name="Group 49">
    <g clip-path="url(#clippath-2)">
      <g id="Group_48" data-name="Group 48">
        <path id="Path_40" data-name="Path 40" d="M131.57,259.28c-.42-1.18-1.04-2.28-1.83-3.25-1-1.03-4.54-1.95-3.28-3.54,1.18-1.48,4.56,1.53,5.38,2.57,1.13,1.36,1.82,3.02,1.99,4.77.18,2.11-.35,14.15.11,14.82.35.5,1.8.19,2.42.27.18-.18-.25-3.14.14-3.95.43-.87,2.12-.63,2.12-.14v4.09h2.54v-8.87c0-.97,4.42.18,4.76-.88.11-.77.11-1.55,0-2.31-.28-.45-2.12-.48-2.44-2.79-.71-5.17,7.46-5.21,6.99-.24-.2,2.16-1.98,2.55-2.2,3.18-.35,1.02.31,3.06-.18,4.04-.56,1.13-3.59.81-4.66.84v7.04c.47,0,2.54.16,2.54-.42v-4.09c1.31-.67,3.46.07,4.61-.33.55-.19.75-1.24,1.25-1.65,1.48-1.18,3.62-.99,4.87.43,2.79,3.29-1.64,7.72-4.95,4.94-1.31-1.1-.96-1.85-3.53-1.41v2.54c3.87-.39,5,.6,4.52,4.51h4.09c.18,0,.69.69.72,1,.22,2.24-4.1.66-4.69,1.52-.29.43-.19,2.27.3,2.27h11.58c.19,0,1.1-1.98,2.84-2.24,5.96-.88,5.04,8.54-.71,6.59-.99-.34-1.98-2.1-2.13-2.1h-12c.07.61-.24,2.07.26,2.41.74.51,5.02-.2,6.31.18,1.06.31,3.92,4.4,5.01,4.88.89.39,2.19-.85,3.96.82,3.34,3.14-1.3,8.19-4.8,5.07-1.9-1.7-.53-3.32-1-4.34-.12-.27-3.94-4.24-4.24-4.24h-5.08c-.61,0-.61,2.54,0,2.54h4.09c.11,0,.51,1.58-.21,1.97-.95.51-4.15.13-4.31.28v2.26h6.35c1.18,0,.47,4.08.75,4.88.38,1.12,3.53,1.49,2.18,4.81-1.48,3.64-6.89,2.35-6.76-1.37.08-2.25,1.95-2.57,2.21-3.45,1.06-3.57-2.09-2.63-4.48-2.5-.77.54.49,3.48-1.13,4.51-1.02.65-2.5.4-3.66.44v2.26c1.04.17,3.88-.47,4.38.56.62,1.28-.26,5.08.14,6.56.12.44,2.77,1.45,2.49,3.93-.5,4.44-7.65,3.8-7-1.03.23-1.73,2.25-2.66,2.25-2.84v-4.93h-4.09c-.16-.13-.3-.27-.42-.42v-4.09h-2.54c-.15,1.13.63,4.96-1.22,4.72-.27-.04-1.04-.48-1.04-.63v-4.09h-2.54v6.62c0,.95,4.08-.21,4.61,1.05.69,1.62-.28,5.01.23,6.51.25.74,2.1.91,2.22,3.16.27,4.96-7.65,5.13-6.77-.56.3-1.97,1.88-1.83,2.12-2.67.21-1.44.24-2.9.08-4.35-.34-1.05-4.76.16-4.76-1.17v-8.59h-2.54v14.51c-.47,1.35-1.05,2.65-1.75,3.9-2.89,4.6-9.37,6.1-14.16,3.52-.99-.53-3.38-2.87-3.78-2.99-.8-.24-2.16-.02-3.2-.18-1.63-.26-6.48-2.41-6.51-4.24-.03-2.6,2.91.25,3.61.65,1.48.9,3.16,1.41,4.89,1.46.24-.23-2.29-6.45.96-5.32.56.2.99,3.75,1.45,4.76,2.63,5.77,11.24,6.45,14.78,1.22.62-1.05,1.1-2.17,1.46-3.34v-22.68h-7.77c-1.9,0-1.15,4.08-3.34,3.34-1.36-.46-.27-3.21.42-4,.62-.72,2.12-1.23,2.2-1.33.24-.33-1.97-4.06-.26-4.91,2.03-1.02,1.47,2.37,2.41,3.52.56.53,1.23.92,1.97,1.14h4.38v-35.36ZM148.13,259.52c0-.64-.52-1.17-1.16-1.17-.64,0-1.17.52-1.17,1.16,0,.64.52,1.17,1.16,1.17,0,0,0,0,0,0,.64,0,1.16-.52,1.16-1.16M155.27,271.19c0-.65-.52-1.18-1.17-1.18-.65,0-1.18.52-1.18,1.17,0,.65.52,1.18,1.17,1.18,0,0,0,0,0,0,.65,0,1.17-.52,1.18-1.17M150.49,277.17h-16.24c-.61,0-.61,2.54,0,2.54h12.42c1.9,0,2.11,6.01.8,6.44-2.35.77-1.29-2.85-1.51-4.19h-12.14v16.2c.13.16.27.3.42.42h11.3c.16-.13.3-.27.42-.42v-8.87c.61-.47,1.48-.36,1.95.25.17.22.27.48.29.76.23,2.71.23,5.44.03,8.16.02,1.3-1.03,2.38-2.33,2.39-.02,0-.05,0-.07,0-3.6.4-7.87-.35-11.55.03-.75.25-.4,1.57-.46,2.21h16.66v-25.92ZM169.43,285.34c0-.63-.51-1.15-1.14-1.15-.63,0-1.15.51-1.15,1.14,0,.63.51,1.15,1.14,1.15,0,0,0,0,0,0,.63,0,1.14-.51,1.14-1.14M167.09,297.23c0-.66-.53-1.19-1.18-1.19s-1.19.53-1.19,1.18c0,.66.53,1.19,1.18,1.19,0,0,0,0,0,0,.65,0,1.19-.53,1.19-1.18M160.01,306.73c0-.66-.53-1.19-1.18-1.19-.66,0-1.19.53-1.19,1.18,0,.66.53,1.19,1.18,1.19,0,0,0,0,0,0,.65,0,1.19-.53,1.19-1.18M152.83,318.52c0-.64-.51-1.15-1.15-1.16-.64,0-1.15.51-1.16,1.15s.51,1.15,1.15,1.16h0c.64,0,1.15-.51,1.15-1.15M143.48,323.24c0-.66-.53-1.2-1.19-1.2-.66,0-1.2.53-1.2,1.19,0,.66.53,1.2,1.19,1.2,0,0,0,0,0,0,.66,0,1.2-.53,1.2-1.19h0" fill="#1a1818"/>
        <path id="Path_41" data-name="Path 41" d="M98.26,281.95c.44.3,4.71-2.38,4.24.42-.12.72-3.18,1.82-4.11,2.68-4.26,3.94-2.23,11.55,3.46,12.89.86.2,2.7-.24,2.91,1.06.44,2.72-3.56.4-4.22,1.42-1.22,1.87-.51,6.43,1.95,7.16.82-2.28,3.43-4.8,5.66-5.77,1.13-.49,5.76-1.93,6.17-.23.45,1.86-2.19,1.35-3.14,1.56-4.9,1.06-7.66,5.4-7.56,10.23.02.97.98,3.37-.69,3.49-2.32.17-1.23-5.62-1.55-6.83-.03-.12-1.07-.78-1.41-1.19-1.69-2.08-2.5-4.01-2.26-6.75.07-.81.91-2.75.82-3.06-.05-.17-2.16-1.84-2.64-2.46-2.34-3.17-2.64-7.4-.78-10.87.3-.56,1.45-1.84,1.45-2.2.01-.47-.71-1.5-.82-2.29-.27-2.42.73-4.81,2.66-6.32.39-.34,1.23-.54,1.42-.84.29-.47.1-2.01.26-2.84.38-1.95,1.33-3.75,2.73-5.17.43-.43,2.24-1.55,2.37-1.84.11-.24-.2-.99-.12-1.52.83-5.34,4.47-8.55,10.01-8.08.72.06,1.69.65,2.2.52.92-.23,4.01-4.23,5.86-2.93,1.81,1.26-2.02,2.75-2.69,3.26-.68.52-1.83,2.25-2.12,2.4-1.04.52-2.2-.81-3.27-.98-8.14-1.29-10.34,9.9-3.23,12.24.74.24,3.46.17,3.08,1.63-.62,2.38-6.01-.33-7.19-1.49-1.67-1.63-1.39-3.91-3.79-.99-.85,1.07-1.43,2.33-1.68,3.68-.12.91.2,3.26-.15,3.79-.19.28-2.11.67-2.84,1.4-.85.85-1.96,4.11-.98,4.79" fill="#1a1818"/>
        <path id="Path_42" data-name="Path 42" d="M125.57,266.53c1.07,1.25.11,5.39-.83,6.78-.81,1.21-4.04,3.99-5.43,2.99-1.91-1.4,1.83-2.43,2.66-3.21.91-.92,1.5-2.11,1.69-3.39.07-.84-.36-2.54-.03-3.04.52-.52,1.35-.58,1.93-.12" fill="#1a1818"/>
        <path id="Path_43" data-name="Path 43" d="M123.59,306.82c2.24,2.27-3.76,8.85-5.87,6.56-1.54-1.68,2.33-2.18,3.07-3.14.64-.83.96-5.27,2.79-3.41" fill="#1a1818"/>
        <path id="Path_44" data-name="Path 44" d="M109.74,286.24c2.78-.39,6.86,4.48,4.77,6.17-1.7,1.37-1.75-1.46-2.08-2.21-.77-1.77-3.21-1.43-3.61-2.03-.37-.59-.2-1.37.39-1.74.16-.1.34-.17.53-.19" fill="#1a1818"/>
      </g>
    </g>
  </g>
  <g id="Group_47" data-name="Group 47">
    <g clip-path="url(#clippath-3)">
      <g id="Group_46" data-name="Group 46">
        <path id="Path_39" data-name="Path 39" d="M435.91,290.37c0,23.18-18.47,41.98-41.26,41.98s-41.26-18.79-41.26-41.98,18.47-41.98,41.26-41.98,41.26,18.79,41.26,41.98M403.44,266.46c-1.23-6.16-6.66-23.19-13.62-11.22-1.98,3.41-2.95,7.42-3.92,11.22h17.54ZM373.54,266.46h9.37c1.79-4.62,2.64-9.9,5.78-13.99-1.4-.23-3.85,1.21-5.15,2.06-4.32,3.03-7.77,7.15-10,11.93M415.79,266.46c-2.18-4.79-6.55-9.86-11.04-12.49-1.1-.65-2.97-1.88-4.11-1.5,3.19,4.08,3.9,9.39,5.78,13.99h9.37ZM425.36,266.46c-3.96-5.33-9.25-9.53-15.34-12.17l4.75,5.31c1.33,2.24,3.17,4.26,3.82,6.86h6.78ZM363.98,266.46h6.78c.61-2.51,2.38-4.46,3.65-6.62l4.12-5.14c-5.79,2.59-10.8,6.64-14.55,11.76M369.16,269.3h-6.98c-1.81,0-7.23,17.1-6.18,19.87h9.16c.24-6.8,1.59-13.51,3.99-19.87M382.71,269.3h-10.76c-2.38,6.33-4.18,13.03-3.99,19.87h12.75l1.99-19.87ZM383.51,289.17h22.32l-1.59-19.87-18.91-.02c-1.24,6.56-1.85,13.22-1.82,19.89M417.39,269.3h-10.76l2.19,19.87h12.56c.11-6.85-1.58-13.55-3.99-19.87M433.33,289.17c.98-2.74-4.34-19.87-6.18-19.87h-6.98c2.36,6.37,3.71,13.08,3.99,19.87h9.17ZM365.17,291.6h-9.17c-1.03,2.78,4.31,19.87,6.18,19.87h6.97c-2.41-6.36-3.76-13.07-3.99-19.87M380.71,291.6h-12.75c-.2,6.84,1.6,13.54,3.99,19.87h10.76l-2-19.87ZM405.83,291.6h-22.32c-.02,6.67.59,13.32,1.82,19.88h18.91s1.59-19.88,1.59-19.88ZM421.37,291.6h-12.55l-2.19,19.87h10.76c2.37-6.34,4.14-13.03,3.99-19.87M433.33,291.6h-9.17c-.29,6.79-1.63,13.49-3.99,19.87h6.98c1.84,0,7.16-17.13,6.18-19.87M370.75,314.31h-6.78c3.76,5.1,8.77,9.15,14.55,11.76l-4.12-5.14c-1.28-2.16-3.04-4.12-3.65-6.62M382.9,314.31h-9.36c2.23,4.78,5.68,8.9,10,11.93,1.3.86,3.75,2.29,5.15,2.06-3.14-4.09-3.99-9.37-5.78-13.99M403.43,314.31h-17.54c1.23,6.16,6.66,23.19,13.62,11.22,1.98-3.41,2.95-7.42,3.92-11.22M415.79,314.31h-9.37c-1.88,4.6-2.59,9.91-5.78,13.99,1.13.38,3-.85,4.11-1.5,4.48-2.63,8.86-7.7,11.04-12.49M425.36,314.31h-6.78c-.65,2.6-2.48,4.63-3.82,6.86l-4.75,5.31c6.09-2.64,11.38-6.84,15.34-12.17" fill="#1a1818"/>
      </g>
    </g>
  </g>
  <g id="Group_51" data-name="Group 51">
    <g clip-path="url(#clippath-4)">
      <g id="Group_50" data-name="Group 50">
        <path id="Path_45" data-name="Path 45" d="M660.77,98.42c-.38-.16-.75-.36-1.09-.59-.77-.74-3.56-3.93-4.27-3.93-11.24,8.39-27.75,5.8-34.92-6.44-12.28-20.94,10.52-44.45,31.75-32.79,13.1,7.19,16.02,24.78,6.4,36.08,2.39,2.14,3.79,5.34,7.49,4.73,7.16,6.79,16.05,13.27,22.84,20.35,1.11,1.15,1.86,2.35.94,3.94-.15.26-4.02,4.12-4.28,4.27-.73.48-1.66.54-2.44.16l-22-22.3c-1.13-1.71-.3-3.33-.4-3.48M660.28,75.24c.03-10.8-8.71-19.59-19.52-19.61-10.8-.03-19.59,8.71-19.61,19.52-.03,10.8,8.71,19.59,19.52,19.61.02,0,.03,0,.05,0,10.79.01,19.55-8.73,19.56-19.52h0M685.77,115.85c.37-.33-.65-1.23-.92-1.49-4.52-4.36-9.8-9.3-14.56-13.37-1.13-.97-3.94-3.33-2.25-.36,5.07,3.99,9.51,9.01,14.37,13.18.48.41,2.85,2.5,3.36,2.04" fill="#1a1818"/>
        <path id="Path_46" data-name="Path 46" d="M635.83,61.56c-.63-2.78,4.59-2.38,6.48-2.18,1.78.18,9.82,2.65,9.18,4.97-.46,1.66-4.41-1.54-5.49-1.95-3.52-1.33-6.52-1.02-10.17-.83" fill="#1a1818"/>
        <path id="Path_47" data-name="Path 47" d="M652.42,65.27c1.42-.37,3.89,3.59,2.22,4.09-1.17.29-3.73-3.7-2.22-4.09" fill="#1a1818"/>
      </g>
    </g>
  </g>
  <g id="Group_45" data-name="Group 45">
    <g clip-path="url(#clippath-5)">
      <g id="Group_44" data-name="Group 44">
        <path id="Path_38" data-name="Path 38" d="M655.41,247.22c23.54-2.03,43.17,20.87,34.01,43.51-6.28,15.52-21.14,28.76-30.79,42.24l-1.03-.63c-10.96-15.55-34.66-35.51-32.55-56.22,1.56-15.36,15.23-27.59,30.37-28.9ZM672.19,280.17c.02-7.64-6.16-13.84-13.79-13.86-7.64-.02-13.84,6.16-13.86,13.79-.02,7.64,6.16,13.84,13.79,13.86.01,0,.02,0,.03,0,7.63,0,13.82-6.17,13.83-13.79Z" fill="none" stroke="#1a1818" stroke-miterlimit="10" stroke-width="4"/>
      </g>
    </g>
  </g>
</svg>