<?xml version="1.0" encoding="UTF-8"?>
<svg id="Layer_1" data-name="Layer 1" xmlns="http://www.w3.org/2000/svg" xmlns:xlink="http://www.w3.org/1999/xlink" viewBox="0 0 593.75 593.75">
  <defs>
    <linearGradient id="linear-gradient" x1="0" y1="296.88" x2="593.75" y2="296.88" gradientUnits="userSpaceOnUse">
      <stop offset="0" stop-color="#e0edf0"/>
      <stop offset=".01" stop-color="#e1ece0"/>
      <stop offset=".04" stop-color="#e3ebc6"/>
      <stop offset=".07" stop-color="#e4eab3"/>
      <stop offset=".1" stop-color="#e5eaa7"/>
      <stop offset=".13" stop-color="#e6eaa4"/>
      <stop offset=".5" stop-color="#dadf80"/>
      <stop offset=".68" stop-color="#ccd45f"/>
      <stop offset=".92" stop-color="#d6db5a"/>
    </linearGradient>
  </defs>
  <path d="M45.18,0c-.77,19.22.42,50.84,19.62,61.46,19.96,11.05,39.63-11.15,61.47-13.04,78.29-6.77,97.5,101.99,12.69,115.95-15.1,2.49-50.15-.84-60.3,9.08-5.91,5.78-4.55,15.37,3.19,18.58,7.25,3,24.77.27,33.9.79,52.21,2.95,97.3,41.05,80.85,96.97-3.64,12.39-15.11,25.46-7.63,38.75,5.51,9.79,18.2,10.14,22.78-1.01,7.09-17.28-.38-46.93,4.68-68.73,13.14-56.57,86.91-65.04,107.63-12.1,1.82,4.66,2.88,14.07,5.56,17.02,5.4,5.93,14.24,3.64,18.09-2.72,8.2-13.55,1.72-46.22,4.1-63.67,10.38-76.16,109.51-70.31,115.99,1.63,1.51,16.78-4.16,26.45-9.6,41.03-10.39,27.85,8.71,43.01,35.07,44.82,7.82.54,20.99-1.54,27.5-.51,1.46.23,12.3,4.02,14.85,4.95,40.08,14.69,48.26,68.62,14.94,94.74-10.82,8.48-25.28,13.84-38.78,16.07-13.25,2.19-43.15.78-51.56,12.17-4.71,6.38-.42,15.73,6.67,18.37,13.75,5.1,22.36-4.92,33.38-10.58,34.16-17.53,72.1-6.54,93.47,24.49v109.72c-19.32,26.81-53.96,38.38-85.26,25.96-12.15-4.82-23.87-17.17-37.73-12.21-6.28,2.25-10.17,8.08-9.27,14.83.84,6.29,8.3,8.17,12.86,10.95h-55.66c-8.92-47.75,35.49-82.6,80.64-67.33,20.04,6.78,39.86,29.03,58.45,1.91,12.85-18.74,11.31-46.72-3.95-63.67-20.6-22.87-42.23,4.2-63.31,9.31-72.82,17.67-108.4-80.65-37.69-108.68,18.26-7.24,34.9-5.49,53.19-8.93,8.91-1.68,23.26-6.19,21.54-17.89-1.97-13.4-28.44-8.67-38.26-9.34-52.62-3.62-93-47.24-74.19-100.79,3.75-10.68,11.53-20.04,7-32.08-4.55-12.07-20.2-13.37-24.61.76-6.26,20.1,1.77,45.71-4.03,68.58-13.52,53.39-83.95,63.33-106.27,13.12-4.31-9.71-3.26-26.49-18.2-22.22-7.87,2.25-10.08,12.58-10.75,19.91-1.83,19.97,3.23,37.63-2.11,58.39-19.46,75.63-125.07,49.21-113.12-26.8,3.23-20.55,23.84-42.31,2.57-60.32-18.91-16.02-45.39-7.64-66.86-10.59-62.33-8.56-66-97.63,2.56-112.63,16.54-3.62,52.17-.12,63.86-8.75,10.52-7.76,3.09-21.48-8.51-22.85-12.12-1.43-17.59,5.06-27.44,9.49C59.68,124.63,12.55,91.53,3.45,41.33L0,12.91V0h45.18Z" fill="url(#linear-gradient)"/>
</svg>