<?xml version="1.0" encoding="UTF-8"?>
<svg id="Layer_1" xmlns="http://www.w3.org/2000/svg" xmlns:xlink="http://www.w3.org/1999/xlink" version="1.1" viewBox="0 0 841.89 595.28">
  <!-- Generator: Adobe Illustrator 29.3.1, SVG Export Plug-In . SVG Version: 2.1.0 Build 151)  -->
  <defs>
    <style>
      .st0 {
        fill: url(#linear-gradient);
      }
    </style>
    <linearGradient id="linear-gradient" x1="1770.37" y1="1885.03" x2="2303.06" y2="1885.03" gradientTransform="translate(2306.13 -1745.96) rotate(90)" gradientUnits="userSpaceOnUse">
      <stop offset="0" stop-color="#e0edf0"/>
      <stop offset=".02" stop-color="#d3e4e9"/>
      <stop offset=".05" stop-color="#c1d6df"/>
      <stop offset=".09" stop-color="#b5cdd9"/>
      <stop offset=".13" stop-color="#b2cbd7"/>
      <stop offset=".5" stop-color="#7aa6b7"/>
      <stop offset=".68" stop-color="#458091"/>
      <stop offset=".92" stop-color="#2d5e72"/>
    </linearGradient>
  </defs>
  <path class="st0" d="M841.75,299.35c-13.16.58-27.37,3.35-39.05,9.54-46.55,24.67-36.3,105.7-109.18,100.08-46.45-3.58-73.17-45.95-85.55-86.36-19.32-63.06-10.75-131.36-28.23-195.17-.56-2.03-1.02-5.53-2.9-6.64-4.8,21.28-8.89,42.77-11.53,64.47-7.82,64.35-6.38,195.72-51.58,244.08-24.43,26.15-60.81,25.74-84.76-.83-43.84-48.65-42.47-174.59-49.91-238.27-2.73-23.35-6.71-46.77-12.77-69.45-2.52,5.74-3.86,12.71-5.16,18.92-12.73,60.76-12.21,124.78-16.84,186.63-4.22,56.3-9.26,136.28-31.42,187.83-23.31,54.24-78.29,59.83-100.03.91-22.43-60.77-21.43-134.94-33.2-198.51-2.81-15.19-10.27-30.65-19.05-43.24C125.41,222.84,59.03,204.07.46,198.86v-72.25c94.07,5.68,195.56,45.19,236.84,135.64,19.67,43.09,17.18,90.63,25.59,136.35.25,1.34-.3,2.74,1.25,3.73,7.79-54.78,11.08-110.23,12.83-165.55l3.35-1.39-3.33-1.25c1.36-10.9,1.52-22.15,2.51-33.2,3.61-40.17,10.74-93.75,27.52-130.27,27.48-59.81,87.73-62.64,116.86-2.49,38.6,79.67,23.82,189.75,45.37,276.04.61,2.44.85,5.51,2.5,7.45,1.47-.02,6.29-24.43,6.82-27.22,11.51-60.69,9.68-122.78,20.44-183.87,7.01-39.8,21.27-106.14,68.48-115.06,67.47-12.75,85.6,89.6,92.27,136.49,6.6,46.32,3.35,124.31,27.16,163.03,1.16,1.89,6.88,10.92,9.44,9.17,11.62-26.2,25.21-52.18,46.94-71.41,26.73-23.66,62.98-35.01,98.44-35.69v72.25Z"/>
</svg>