<?xml version="1.0" encoding="UTF-8"?>
<svg id="Layer_1" data-name="Layer 1" xmlns="http://www.w3.org/2000/svg" xmlns:xlink="http://www.w3.org/1999/xlink" viewBox="0 0 880.87 608.52">
  <defs>
    <linearGradient id="linear-gradient" x1="-49.34" y1="337.42" x2="905.85" y2="337.42" gradientTransform="translate(143.19 715.09) rotate(-27.58) scale(1 -1)" gradientUnits="userSpaceOnUse">
      <stop offset="0" stop-color="#e0edf0"/>
      <stop offset=".03" stop-color="#dee9ee"/>
      <stop offset=".12" stop-color="#dce6ed"/>
      <stop offset=".5" stop-color="#c8d9e1"/>
      <stop offset=".68" stop-color="#b8ccd9"/>
      <stop offset=".92" stop-color="#b4c6d3"/>
    </linearGradient>
  </defs>
  <path d="M880.87,170.83l-33.05-63.27c-52.23-2.76-81.94-50.66-121.52-77.11-47.4-31.68-104.89-38.9-159.02-20.43-58.66,20.02-83.72,48.44-112.07,100.86-18.9,34.93-42.02,110.36-94.42,94.44-31.57-9.59-48.83-51.25-70.86-74.57-43.33-45.88-109.97-62.33-159.16-13.93-56.54,55.65-12.63,133.74,29.21,182.9,27.91,32.79,91.33,76.25,72.1,125.88-15.95,41.18-64.58,43.75-100.54,53.7-47.65,13.18-94.36,35.33-131.54,68.26l31.85,60.97c32.43-32.51,73.12-52.88,117.08-65.1,18.17-5.05,37.36-6.95,55.17-13.37,106.67-38.44,128.65-144.2,52.78-226.51-27.34-29.66-87.7-79.53-86.25-123.24.62-18.78,21.61-29.47,38.59-25.3,33.59,8.25,52.01,52.95,74.12,76.46,50.92,54.15,130.85,58.87,180.37-.58,50.58-60.72,47.07-142.21,139.91-161.93,76.81-16.31,103.13,41.03,157.79,76.46,35.46,22.99,77.34,35.47,119.47,25.41Z" fill="url(#linear-gradient)"/>
</svg>